<?xml version="1.0" encoding="utf-8"?>
<!-- Generator: Adobe Illustrator 24.0.3, SVG Export Plug-In . SVG Version: 6.00 Build 0)  -->
<svg version="1.1" id="Layer_1" xmlns="http://www.w3.org/2000/svg" xmlns:xlink="http://www.w3.org/1999/xlink" x="0px" y="0px"
	 viewBox="0 0 128 128" style="enable-background:new 0 0 128 128;" xml:space="preserve">
<style type="text/css">
	.st0{fill:url(#SVGID_1_);}
	.st1{fill:url(#SVGID_2_);}
	.st2{fill:url(#SVGID_3_);}
	.st3{fill:url(#SVGID_4_);}
</style>
<g>
	<linearGradient id="SVGID_1_" gradientUnits="userSpaceOnUse" x1="63.6091" y1="42.2859" x2="63.6091" y2="115.588">
		<stop  offset="0" style="stop-color:#D9A555"/>
		<stop  offset="1" style="stop-color:#36C9FF"/>
	</linearGradient>
	<path class="st0" d="M63.6,3.2c-8.8,0-15.9,7.1-15.9,15.9S54.8,35,63.6,35c8.8,0,15.9-7.1,15.9-15.9S72.4,3.2,63.6,3.2z M63.6,26
		c-3.8,0-6.9-3.1-6.9-6.9s3.1-6.9,6.9-6.9c3.8,0,6.9,3.1,6.9,6.9S67.4,26,63.6,26z"/>
	<linearGradient id="SVGID_2_" gradientUnits="userSpaceOnUse" x1="31.5034" y1="42.2859" x2="31.5034" y2="115.588">
		<stop  offset="0" style="stop-color:#D9A555"/>
		<stop  offset="1" style="stop-color:#36C9FF"/>
	</linearGradient>
	<path class="st1" d="M31.2,43c-9.4-4.7-18.8-4.8-19.2-4.8l0,11.3c0.1,0,7.4,0.1,14.4,3.7c8.7,4.5,13.2,12.5,13.2,23.9v39.3H51V77.2
		C51,57.1,40.2,47.6,31.2,43z"/>
	<linearGradient id="SVGID_3_" gradientUnits="userSpaceOnUse" x1="95.7046" y1="42.2859" x2="95.7046" y2="115.588">
		<stop  offset="0" style="stop-color:#D9A555"/>
		<stop  offset="1" style="stop-color:#36C9FF"/>
	</linearGradient>
	<path class="st2" d="M96,43c-9,4.5-19.8,14.1-19.8,34.2v39.3h11.3V77.2c0-11.3,4.4-19.4,13.2-23.9c7-3.6,14.3-3.7,14.4-3.7V38.3
		C114.8,38.3,105.4,38.3,96,43z"/>
	<linearGradient id="SVGID_4_" gradientUnits="userSpaceOnUse" x1="63.6091" y1="42.2859" x2="63.6091" y2="115.588">
		<stop  offset="0" style="stop-color:#D9A555"/>
		<stop  offset="1" style="stop-color:#36C9FF"/>
	</linearGradient>
	<rect x="57.9" y="40.2" class="st3" width="11.3" height="83.3"/>
</g>
</svg>
